# xmcd
#
# Track frame offsets: 
#        150
#        25430
#        46272
#        68435
#        89710
#        112030
#        127077
#        201112
#
# Disc length: 3006 seconds
#
# Revision: 2
# Processed by: cddbd v1.5PL3 Copyright (c) Steve Scherf et al.
# Submitted via: ExactAudioCopy v0.90b4
#
DISCID=710bbc08
DTITLE=B.B.King - Completely Well
DYEAR=1969
DGENRE=Blues
TTITLE0=So Excited
TTITLE1=No Good
TTITLE2=You're Losin' Me
TTITLE3=What Happened
TTITLE4=Confessin' the Blues
TTITLE5=Key to My Kingdom
TTITLE6=Cryin' Won't Help You Now - You're Mean
TTITLE7=The Thrill is Gone
EXTD=
EXTT0=
EXTT1=
EXTT2=
EXTT3=
EXTT4=
EXTT5=
EXTT6=
EXTT7=
PLAYORDER=
